{
    "asset" : {
        "generator" : "Khronos glTF Blender I/O v1.5.17",
        "version" : "2.0"
    },
    "scene" : 0,
    "scenes" : [
        {
            "name" : "Scene",
            "nodes" : [
                0,
                1,
                2,
                3,
                4,
                5
            ]
        }
    ],
    "nodes" : [
        {
            "name" : "Camera",
            "translation" : [
                0,
                3,
                0
            ]
        },
        {
            "mesh" : 0,
            "name" : "First",
            "rotation" : [
                0,
                -0.002140284748747945,
                0,
                0.9999977350234985
            ],
            "translation" : [
                -1.6216175556182861,
                0.13170400261878967,
                14.986933708190918
            ]
        },
        {
            "mesh" : 1,
            "name" : "Second",
            "rotation" : [
                0,
                3.6823214031755924e-05,
                0,
                1
            ],
            "translation" : [
                -0.7881494760513306,
                0.13170400261878967,
                -15.013066291809082
            ]
        },
        {
            "mesh" : 2,
            "name" : "Third",
            "rotation" : [
                0,
                -0.00021085975458845496,
                0,
                1
            ],
            "translation" : [
                -0.046898528933525085,
                0.13170400261878967,
                14.986933708190918
            ]
        },
        {
            "mesh" : 3,
            "name" : "Fourth",
            "rotation" : [
                0,
                -0.0008363474626094103,
                0,
                1
            ],
            "translation" : [
                1.0734000205993652,
                0.13170400261878967,
                -15.013066291809082
            ]
        },
        {
            "mesh" : 4,
            "name" : "Text",
            "translation" : [
                1.1151784658432007,
                -2.8189477920532227,
                22.43242835998535
            ]
        }
    ],
    "animations" : [
        {
            "channels" : [
                {
                    "sampler" : 0,
                    "target" : {
                        "node" : 1,
                        "path" : "translation"
                    }
                },
                {
                    "sampler" : 1,
                    "target" : {
                        "node" : 2,
                        "path" : "translation"
                    }
                },
                {
                    "sampler" : 2,
                    "target" : {
                        "node" : 3,
                        "path" : "translation"
                    }
                },
                {
                    "sampler" : 3,
                    "target" : {
                        "node" : 4,
                        "path" : "translation"
                    }
                },
                {
                    "sampler" : 4,
                    "target" : {
                        "node" : 5,
                        "path" : "translation"
                    }
                }
            ],
            "name" : "Animation",
            "samplers" : [
                {
                    "input" : 20,
                    "interpolation" : "LINEAR",
                    "output" : 21
                },
                {
                    "input" : 22,
                    "interpolation" : "LINEAR",
                    "output" : 23
                },
                {
                    "input" : 24,
                    "interpolation" : "LINEAR",
                    "output" : 25
                },
                {
                    "input" : 26,
                    "interpolation" : "LINEAR",
                    "output" : 27
                },
                {
                    "input" : 28,
                    "interpolation" : "LINEAR",
                    "output" : 29
                }
            ]
        }
    ],
    "materials" : [
        {
            "doubleSided" : true,
            "name" : "Material.003",
            "pbrMetallicRoughness" : {
                "baseColorFactor" : [
                    1,
                    0.14126315712928772,
                    0.45641106367111206,
                    1
                ],
                "metallicFactor" : 0,
                "roughnessFactor" : 0.5
            }
        },
        {
            "doubleSided" : true,
            "name" : "Material.004",
            "pbrMetallicRoughness" : {
                "baseColorFactor" : [
                    1,
                    0.14126315712928772,
                    0.45641106367111206,
                    1
                ],
                "metallicFactor" : 0,
                "roughnessFactor" : 0.5
            }
        },
        {
            "doubleSided" : true,
            "name" : "Material.005",
            "pbrMetallicRoughness" : {
                "baseColorFactor" : [
                    1,
                    0.14126315712928772,
                    0.45641106367111206,
                    1
                ],
                "metallicFactor" : 0,
                "roughnessFactor" : 0.5
            }
        },
        {
            "doubleSided" : true,
            "name" : "Material.002",
            "pbrMetallicRoughness" : {
                "baseColorFactor" : [
                    1,
                    0.14126315712928772,
                    0.45641106367111206,
                    1
                ],
                "metallicFactor" : 0,
                "roughnessFactor" : 0.5
            }
        }
    ],
    "meshes" : [
        {
            "name" : "Text",
            "primitives" : [
                {
                    "attributes" : {
                        "POSITION" : 0,
                        "NORMAL" : 1,
                        "TEXCOORD_0" : 2
                    },
                    "indices" : 3,
                    "material" : 0
                }
            ]
        },
        {
            "name" : "Text.001",
            "primitives" : [
                {
                    "attributes" : {
                        "POSITION" : 4,
                        "NORMAL" : 5,
                        "TEXCOORD_0" : 6
                    },
                    "indices" : 7,
                    "material" : 1
                }
            ]
        },
        {
            "name" : "Text.002",
            "primitives" : [
                {
                    "attributes" : {
                        "POSITION" : 8,
                        "NORMAL" : 9,
                        "TEXCOORD_0" : 10
                    },
                    "indices" : 11,
                    "material" : 2
                }
            ]
        },
        {
            "name" : "Text.003",
            "primitives" : [
                {
                    "attributes" : {
                        "POSITION" : 12,
                        "NORMAL" : 13,
                        "TEXCOORD_0" : 14
                    },
                    "indices" : 15,
                    "material" : 3
                }
            ]
        },
        {
            "name" : "Text.004",
            "primitives" : [
                {
                    "attributes" : {
                        "POSITION" : 16,
                        "NORMAL" : 17,
                        "TEXCOORD_0" : 18
                    },
                    "indices" : 19
                }
            ]
        }
    ],
    "accessors" : [
        {
            "bufferView" : 0,
            "componentType" : 5126,
            "count" : 1223,
            "max" : [
                0.6636001467704773,
                0.10999999940395355,
                0.012400000356137753
            ],
            "min" : [
                -0.014786282554268837,
                -0.10999999940395355,
                -0.2828000783920288
            ],
            "type" : "VEC3"
        },
        {
            "bufferView" : 1,
            "componentType" : 5126,
            "count" : 1223,
            "type" : "VEC3"
        },
        {
            "bufferView" : 2,
            "componentType" : 5126,
            "count" : 1223,
            "type" : "VEC2"
        },
        {
            "bufferView" : 3,
            "componentType" : 5123,
            "count" : 5196,
            "type" : "SCALAR"
        },
        {
            "bufferView" : 4,
            "componentType" : 5126,
            "count" : 2650,
            "max" : [
                0.5808008313179016,
                0.10999999940395355,
                0.10200013220310211
            ],
            "min" : [
                -0.016078025102615356,
                -0.10999999940395355,
                -0.19321803748607635
            ],
            "type" : "VEC3"
        },
        {
            "bufferView" : 5,
            "componentType" : 5126,
            "count" : 2650,
            "type" : "VEC3"
        },
        {
            "bufferView" : 6,
            "componentType" : 5126,
            "count" : 2650,
            "type" : "VEC2"
        },
        {
            "bufferView" : 7,
            "componentType" : 5123,
            "count" : 11496,
            "type" : "SCALAR"
        },
        {
            "bufferView" : 8,
            "componentType" : 5126,
            "count" : 6631,
            "max" : [
                0.9869260191917419,
                0.10999999940395355,
                0.10200002044439316
            ],
            "min" : [
                0.013600006699562073,
                -0.10999999940395355,
                -0.1932157576084137
            ],
            "type" : "VEC3"
        },
        {
            "bufferView" : 9,
            "componentType" : 5126,
            "count" : 6631,
            "type" : "VEC3"
        },
        {
            "bufferView" : 10,
            "componentType" : 5126,
            "count" : 6631,
            "type" : "VEC2"
        },
        {
            "bufferView" : 11,
            "componentType" : 5123,
            "count" : 28680,
            "type" : "SCALAR"
        },
        {
            "bufferView" : 12,
            "componentType" : 5126,
            "count" : 5429,
            "max" : [
                0.6260249018669128,
                0.10999999940395355,
                0.013622982427477837
            ],
            "min" : [
                0.013600002974271774,
                -0.10999999940395355,
                -0.28672635555267334
            ],
            "type" : "VEC3"
        },
        {
            "bufferView" : 13,
            "componentType" : 5126,
            "count" : 5429,
            "type" : "VEC3"
        },
        {
            "bufferView" : 14,
            "componentType" : 5126,
            "count" : 5429,
            "type" : "VEC2"
        },
        {
            "bufferView" : 15,
            "componentType" : 5123,
            "count" : 23508,
            "type" : "SCALAR"
        },
        {
            "bufferView" : 16,
            "componentType" : 5126,
            "count" : 71,
            "max" : [
                0.08920001238584518,
                0,
                0.0018000000854954123
            ],
            "min" : [
                0.009800001047551632,
                0,
                -0.1308000087738037
            ],
            "type" : "VEC3"
        },
        {
            "bufferView" : 17,
            "componentType" : 5126,
            "count" : 71,
            "type" : "VEC3"
        },
        {
            "bufferView" : 18,
            "componentType" : 5126,
            "count" : 71,
            "type" : "VEC2"
        },
        {
            "bufferView" : 19,
            "componentType" : 5123,
            "count" : 144,
            "type" : "SCALAR"
        },
        {
            "bufferView" : 20,
            "componentType" : 5126,
            "count" : 61,
            "max" : [
                1
            ],
            "min" : [
                0
            ],
            "type" : "SCALAR"
        },
        {
            "bufferView" : 21,
            "componentType" : 5126,
            "count" : 61,
            "type" : "VEC3"
        },
        {
            "bufferView" : 22,
            "componentType" : 5126,
            "count" : 121,
            "max" : [
                2
            ],
            "min" : [
                0
            ],
            "type" : "SCALAR"
        },
        {
            "bufferView" : 23,
            "componentType" : 5126,
            "count" : 121,
            "type" : "VEC3"
        },
        {
            "bufferView" : 24,
            "componentType" : 5126,
            "count" : 181,
            "max" : [
                3
            ],
            "min" : [
                0
            ],
            "type" : "SCALAR"
        },
        {
            "bufferView" : 25,
            "componentType" : 5126,
            "count" : 181,
            "type" : "VEC3"
        },
        {
            "bufferView" : 26,
            "componentType" : 5126,
            "count" : 241,
            "max" : [
                4
            ],
            "min" : [
                0
            ],
            "type" : "SCALAR"
        },
        {
            "bufferView" : 27,
            "componentType" : 5126,
            "count" : 241,
            "type" : "VEC3"
        },
        {
            "bufferView" : 28,
            "componentType" : 5126,
            "count" : 692,
            "max" : [
                8.883333333333333
            ],
            "min" : [
                -2.6333333333333333
            ],
            "type" : "SCALAR"
        },
        {
            "bufferView" : 29,
            "componentType" : 5126,
            "count" : 692,
            "type" : "VEC3"
        }
    ],
    "bufferViews" : [
        {
            "buffer" : 0,
            "byteLength" : 14676,
            "byteOffset" : 0
        },
        {
            "buffer" : 0,
            "byteLength" : 14676,
            "byteOffset" : 14676
        },
        {
            "buffer" : 0,
            "byteLength" : 9784,
            "byteOffset" : 29352
        },
        {
            "buffer" : 0,
            "byteLength" : 10392,
            "byteOffset" : 39136
        },
        {
            "buffer" : 0,
            "byteLength" : 31800,
            "byteOffset" : 49528
        },
        {
            "buffer" : 0,
            "byteLength" : 31800,
            "byteOffset" : 81328
        },
        {
            "buffer" : 0,
            "byteLength" : 21200,
            "byteOffset" : 113128
        },
        {
            "buffer" : 0,
            "byteLength" : 22992,
            "byteOffset" : 134328
        },
        {
            "buffer" : 0,
            "byteLength" : 79572,
            "byteOffset" : 157320
        },
        {
            "buffer" : 0,
            "byteLength" : 79572,
            "byteOffset" : 236892
        },
        {
            "buffer" : 0,
            "byteLength" : 53048,
            "byteOffset" : 316464
        },
        {
            "buffer" : 0,
            "byteLength" : 57360,
            "byteOffset" : 369512
        },
        {
            "buffer" : 0,
            "byteLength" : 65148,
            "byteOffset" : 426872
        },
        {
            "buffer" : 0,
            "byteLength" : 65148,
            "byteOffset" : 492020
        },
        {
            "buffer" : 0,
            "byteLength" : 43432,
            "byteOffset" : 557168
        },
        {
            "buffer" : 0,
            "byteLength" : 47016,
            "byteOffset" : 600600
        },
        {
            "buffer" : 0,
            "byteLength" : 852,
            "byteOffset" : 647616
        },
        {
            "buffer" : 0,
            "byteLength" : 852,
            "byteOffset" : 648468
        },
        {
            "buffer" : 0,
            "byteLength" : 568,
            "byteOffset" : 649320
        },
        {
            "buffer" : 0,
            "byteLength" : 288,
            "byteOffset" : 649888
        },
        {
            "buffer" : 0,
            "byteLength" : 244,
            "byteOffset" : 650176
        },
        {
            "buffer" : 0,
            "byteLength" : 732,
            "byteOffset" : 650420
        },
        {
            "buffer" : 0,
            "byteLength" : 484,
            "byteOffset" : 651152
        },
        {
            "buffer" : 0,
            "byteLength" : 1452,
            "byteOffset" : 651636
        },
        {
            "buffer" : 0,
            "byteLength" : 724,
            "byteOffset" : 653088
        },
        {
            "buffer" : 0,
            "byteLength" : 2172,
            "byteOffset" : 653812
        },
        {
            "buffer" : 0,
            "byteLength" : 964,
            "byteOffset" : 655984
        },
        {
            "buffer" : 0,
            "byteLength" : 2892,
            "byteOffset" : 656948
        },
        {
            "buffer" : 0,
            "byteLength" : 2768,
            "byteOffset" : 659840
        },
        {
            "buffer" : 0,
            "byteLength" : 8304,
            "byteOffset" : 662608
        }
    ],
    "buffers" : [
        {
            "byteLength" : 670912,
            "uri" : "data:application/octet-stream;base64,"
        }
    ]
}
